{
  "accessors": [
    {
      "bufferView": 2,
      "componentType": 5126,
      "count": 382,
      "max": [
        0.5510528087615967,
        1.1714951992034912,
        0.03592734411358833
      ],
      "min": [
        -0.41281360387802124,
        -1.1834427118301392,
        -0.02053356170654297
      ],
      "type": "VEC3"
    },
    {
      "bufferView": 2,
      "byteOffset": 4584,
      "componentType": 5126,
      "count": 382,
      "max": [
        0.9998481869697571,
        0.9935246109962463,
        1.0
      ],
      "min": [
        -0.9993246793746948,
        -0.9907477498054504,
        -1.0
      ],
      "type": "VEC3"
    },
    {
      "bufferView": 1,
      "componentType": 5126,
      "count": 382,
      "max": [
        1.0000001192092896,
        1.0000001192092896
      ],
      "min": [
        0.0,
        0.0
      ],
      "type": "VEC2"
    },
    {
      "bufferView": 0,
      "componentType": 5125,
      "count": 1488,
      "type": "SCALAR"
    },
    {
      "bufferView": 2,
      "byteOffset": 9168,
      "componentType": 5126,
      "count": 312,
      "max": [
        1.453960657119751,
        0.5104230642318726,
        0.07239293307065964
      ],
      "min": [
        -1.541821002960205,
        -2.4856083393096924,
        0.04003330320119858
      ],
      "type": "VEC3"
    },
    {
      "bufferView": 2,
      "byteOffset": 12912,
      "componentType": 5126,
      "count": 312,
      "max": [
        0.04744279384613037,
        0.04753681272268295,
        1.0
      ],
      "min": [
        -0.04744318127632141,
        -0.04746279492974281,
        -1.0
      ],
      "type": "VEC3"
    },
    {
      "bufferView": 1,
      "byteOffset": 3056,
      "componentType": 5126,
      "count": 312,
      "max": [
        0.9999583959579468,
        1.0
      ],
      "min": [
        4.163384437561035e-05,
        0.0
      ],
      "type": "VEC2"
    },
    {
      "bufferView": 0,
      "byteOffset": 5952,
      "componentType": 5125,
      "count": 1200,
      "type": "SCALAR"
    },
    {
      "bufferView": 2,
      "byteOffset": 16656,
      "componentType": 5126,
      "count": 624,
      "max": [
        1.6129586696624756,
        0.669447660446167,
        0.07239293307065964
      ],
      "min": [
        -1.7008180618286133,
        -2.6446051597595215,
        0.04003330320119858
      ],
      "type": "VEC3"
    },
    {
      "bufferView": 2,
      "byteOffset": 24144,
      "componentType": 5126,
      "count": 624,
      "max": [
        0.9999991059303284,
        1.0,
        0.999817967414856
      ],
      "min": [
        -0.9999990463256836,
        -1.0,
        -0.999489963054657
      ],
      "type": "VEC3"
    },
    {
      "bufferView": 1,
      "byteOffset": 5552,
      "componentType": 5126,
      "count": 624,
      "max": [
        0.9039912223815918,
        0.9378937482833862
      ],
      "min": [
        0.310832142829895,
        0.08205732703208923
      ],
      "type": "VEC2"
    },
    {
      "bufferView": 0,
      "byteOffset": 10752,
      "componentType": 5125,
      "count": 1800,
      "type": "SCALAR"
    },
    {
      "bufferView": 2,
      "byteOffset": 31632,
      "componentType": 5126,
      "count": 2533,
      "max": [
        3.607992172241211,
        5.234412670135498,
        0.12118972092866898
      ],
      "min": [
        -0.7261204123497009,
        0.6731650233268738,
        -0.16413120925426483
      ],
      "type": "VEC3"
    },
    {
      "bufferView": 2,
      "byteOffset": 62028,
      "componentType": 5126,
      "count": 2533,
      "max": [
        0.9999781250953674,
        0.9374704360961914,
        1.0
      ],
      "min": [
        -0.9685671925544739,
        -0.9825202226638794,
        -1.0
      ],
      "type": "VEC3"
    },
    {
      "bufferView": 3,
      "componentType": 5126,
      "count": 2533,
      "max": [
        0.9999846816062927,
        0.9999898076057434,
        0.9984270930290222,
        1.0
      ],
      "min": [
        -0.9987789988517761,
        -0.5363296866416931,
        -0.9994988441467285,
        -1.0
      ],
      "type": "VEC4"
    },
    {
      "bufferView": 1,
      "byteOffset": 10544,
      "componentType": 5126,
      "count": 2533,
      "max": [
        0.8750001192092896,
        0.9166668057441711
      ],
      "min": [
        0.14229431748390198,
        0.083333320915699
      ],
      "type": "VEC2"
    },
    {
      "bufferView": 1,
      "byteOffset": 30808,
      "componentType": 5126,
      "count": 2533,
      "max": [
        0.8750001192092896,
        0.9166668057441711
      ],
      "min": [
        0.14229431748390198,
        0.083333320915699
      ],
      "type": "VEC2"
    },
    {
      "bufferView": 1,
      "byteOffset": 51072,
      "componentType": 5126,
      "count": 2533,
      "max": [
        0.8750001192092896,
        0.9166668057441711
      ],
      "min": [
        0.14229431748390198,
        0.083333320915699
      ],
      "type": "VEC2"
    },
    {
      "bufferView": 0,
      "byteOffset": 17952,
      "componentType": 5125,
      "count": 12000,
      "type": "SCALAR"
    },
    {
      "bufferView": 2,
      "byteOffset": 92424,
      "componentType": 5126,
      "count": 14080,
      "max": [
        0.08693401515483856,
        -0.878368079662323,
        0.08747697621583939
      ],
      "min": [
        -0.20158523321151733,
        -1.1668872833251953,
        -2.3814302494429285e-06
      ],
      "type": "VEC3"
    },
    {
      "bufferView": 2,
      "byteOffset": 261384,
      "componentType": 5126,
      "count": 14080,
      "max": [
        0.9991890788078308,
        0.9991894960403442,
        0.9999973177909851
      ],
      "min": [
        -0.9991892576217651,
        -0.9991893172264099,
        -0.9999973177909851
      ],
      "type": "VEC3"
    },
    {
      "bufferView": 1,
      "byteOffset": 71336,
      "componentType": 5126,
      "count": 14080,
      "max": [
        0.5336766839027405,
        0.5135204792022705
      ],
      "min": [
        0.0,
        0.0
      ],
      "type": "VEC2"
    },
    {
      "bufferView": 0,
      "byteOffset": 65952,
      "componentType": 5125,
      "count": 21120,
      "type": "SCALAR"
    }
  ],
  "asset": {
    "extras": {
      "author": "@voyager.artistry (https://sketchfab.com/Tufail321)",
      "license": "CC-BY-4.0 (http://creativecommons.org/licenses/by/4.0/)",
      "source": "https://sketchfab.com/3d-models/pizza-cutter-2-34d50973b3114afb8068e58d4bb1c7d2",
      "title": "Pizza Cutter 2"
    },
    "generator": "Sketchfab-16.15.0",
    "version": "2.0"
  },
  "bufferViews": [
    {
      "buffer": 0,
      "byteLength": 150432,
      "name": "floatBufferViews",
      "target": 34963
    },
    {
      "buffer": 0,
      "byteLength": 183976,
      "byteOffset": 150432,
      "byteStride": 8,
      "name": "floatBufferViews",
      "target": 34962
    },
    {
      "buffer": 0,
      "byteLength": 430344,
      "byteOffset": 334408,
      "byteStride": 12,
      "name": "floatBufferViews",
      "target": 34962
    },
    {
      "buffer": 0,
      "byteLength": 40528,
      "byteOffset": 764752,
      "byteStride": 16,
      "name": "floatBufferViews",
      "target": 34962
    }
  ],
  "buffers": [
    {
      "byteLength": 805280,
      "uri": "scene.bin"
    }
  ],
  "extensionsUsed": [
    "KHR_materials_specular"
  ],
  "images": [
    {
      "uri": "textures/handle_baseColor.jpeg"
    },
    {
      "uri": "textures/wheel_baseColor.jpeg"
    },
    {
      "uri": "textures/sharp_edges_baseColor.jpeg"
    },
    {
      "uri": "textures/plastic_handle_baseColor.jpeg"
    },
    {
      "uri": "textures/plastic_handle_normal.png"
    }
  ],
  "materials": [
    {
      "doubleSided": true,
      "name": "handle",
      "pbrMetallicRoughness": {
        "baseColorTexture": {
          "index": 0
        },
        "metallicFactor": 0.0,
        "roughnessFactor": 0.214273262051143
      }
    },
    {
      "doubleSided": true,
      "extensions": {
        "KHR_materials_specular": {
          "specularColorFactor": [
            1.0,
            1.0,
            1.0
          ],
          "specularFactor": 0.7903845702494046
        }
      },
      "name": "wheel",
      "pbrMetallicRoughness": {
        "baseColorTexture": {
          "index": 1
        },
        "metallicFactor": 0.0,
        "roughnessFactor": 0.20767870556737852
      }
    },
    {
      "doubleSided": true,
      "name": "sharp_edges",
      "pbrMetallicRoughness": {
        "baseColorTexture": {
          "index": 2
        },
        "metallicFactor": 0.0,
        "roughnessFactor": 0.02979584973497062
      }
    },
    {
      "doubleSided": true,
      "extensions": {
        "KHR_materials_specular": {
          "specularColorFactor": [
            1.0,
            1.0,
            1.0
          ],
          "specularFactor": 0.4420776121651037
        }
      },
      "name": "plastic_handle",
      "normalTexture": {
        "index": 4,
        "texCoord": 1
      },
      "pbrMetallicRoughness": {
        "baseColorTexture": {
          "index": 3
        },
        "metallicFactor": 0.0,
        "roughnessFactor": 0.4420776121651037
      }
    },
    {
      "doubleSided": true,
      "name": "Material.002",
      "pbrMetallicRoughness": {
        "baseColorFactor": [
          0.8,
          0.8,
          0.8,
          1.0
        ],
        "metallicFactor": 0.0,
        "roughnessFactor": 0.8211145618000169
      }
    }
  ],
  "meshes": [
    {
      "name": "Plane.007_handle_0",
      "primitives": [
        {
          "attributes": {
            "NORMAL": 1,
            "POSITION": 0,
            "TEXCOORD_0": 2
          },
          "indices": 3,
          "material": 0,
          "mode": 4
        }
      ]
    },
    {
      "name": "Plane.007_wheel_0",
      "primitives": [
        {
          "attributes": {
            "NORMAL": 5,
            "POSITION": 4,
            "TEXCOORD_0": 6
          },
          "indices": 7,
          "material": 1,
          "mode": 4
        }
      ]
    },
    {
      "name": "Plane.007_sharp edges_0",
      "primitives": [
        {
          "attributes": {
            "NORMAL": 9,
            "POSITION": 8,
            "TEXCOORD_0": 10
          },
          "indices": 11,
          "material": 2,
          "mode": 4
        }
      ]
    },
    {
      "name": "Plane.007_plastic handle_0",
      "primitives": [
        {
          "attributes": {
            "NORMAL": 13,
            "POSITION": 12,
            "TANGENT": 14,
            "TEXCOORD_0": 15,
            "TEXCOORD_1": 16,
            "TEXCOORD_2": 17
          },
          "indices": 18,
          "material": 3,
          "mode": 4
        }
      ]
    },
    {
      "name": "Plane.007_Material.002_0",
      "primitives": [
        {
          "attributes": {
            "NORMAL": 20,
            "POSITION": 19,
            "TEXCOORD_0": 21
          },
          "indices": 22,
          "material": 4,
          "mode": 4
        }
      ]
    }
  ],
  "nodes": [
    {
      "children": [
        1
      ],
      "matrix": [
        1.0,
        0.0,
        0.0,
        0.0,
        0.0,
        2.220446049250313e-16,
        -1.0,
        0.0,
        0.0,
        1.0,
        2.220446049250313e-16,
        0.0,
        0.0,
        0.0,
        0.0,
        1.0
      ],
      "name": "Sketchfab_model"
    },
    {
      "children": [
        2
      ],
      "matrix": [
        0.009999999776482582,
        0.0,
        0.0,
        0.0,
        0.0,
        0.0,
        0.009999999776482582,
        0.0,
        0.0,
        -0.009999999776482582,
        0.0,
        0.0,
        0.0,
        0.0,
        0.0,
        1.0
      ],
      "name": "pizza cutter 2.fbx"
    },
    {
      "children": [
        3
      ],
      "name": "RootNode"
    },
    {
      "children": [
        4,
        5,
        6,
        7,
        8
      ],
      "matrix": [
        100.0,
        0.0,
        0.0,
        0.0,
        0.0,
        99.9999999999999,
        4.371138828673792e-06,
        0.0,
        0.0,
        -4.371138828673792e-06,
        99.9999999999999,
        0.0,
        1338.572265625,
        60.48643493652344,
        -1682.953125,
        1.0
      ],
      "name": "Plane.007"
    },
    {
      "mesh": 0,
      "name": "Plane.007_handle_0"
    },
    {
      "mesh": 1,
      "name": "Plane.007_wheel_0"
    },
    {
      "mesh": 2,
      "name": "Plane.007_sharp edges_0"
    },
    {
      "mesh": 3,
      "name": "Plane.007_plastic handle_0"
    },
    {
      "mesh": 4,
      "name": "Plane.007_Material.002_0"
    }
  ],
  "samplers": [
    {
      "magFilter": 9729,
      "minFilter": 9987,
      "wrapS": 10497,
      "wrapT": 10497
    }
  ],
  "scene": 0,
  "scenes": [
    {
      "name": "Sketchfab_Scene",
      "nodes": [
        0
      ]
    }
  ],
  "textures": [
    {
      "sampler": 0,
      "source": 0
    },
    {
      "sampler": 0,
      "source": 1
    },
    {
      "sampler": 0,
      "source": 2
    },
    {
      "sampler": 0,
      "source": 3
    },
    {
      "sampler": 0,
      "source": 4
    }
  ]
}
